inDegrees=no
num_controls=7
num_derivatives=13
num_iterations=156
num_multipliers=7
num_parameters=0
num_slacks=7
num_states=26
objective=5.593437
objective_accelerations=0.414952
objective_balance=0.050485
objective_effort=0.396369
objective_height=4.659898
objective_ligament=0.071733
solver_duration=1593.759695
status=Solve_Succeeded
success=true
DataType=double
version=3
OpenSimVersion=4.4-2022-07-23-0e9fedc
endheader
time	/jointset/ground_pelvis/pelvis_tilt/value	/jointset/ground_pelvis/pelvis_tx/value	/jointset/ground_pelvis/pelvis_ty/value	/jointset/hip_l/hip_flexion_l/value	/jointset/hip_l/hip_adduction_l/value	/jointset/hip_l/hip_rotation_l/value	/jointset/back/lumbar_extension/value	/jointset/patellofemoral_l/patellar_flexion_l/value	/jointset/knee_l/knee_flexion_l/value	/jointset/knee_l/knee_adduction_l/value	/jointset/knee_l/knee_rotation_l/value	/jointset/ankle_l/ankle_angle_l/value	/jointset/subtalar_l/subtalar_angle_l/value	/jointset/ground_pelvis/pelvis_tilt/speed	/jointset/ground_pelvis/pelvis_tx/speed	/jointset/ground_pelvis/pelvis_ty/speed	/jointset/hip_l/hip_flexion_l/speed	/jointset/hip_l/hip_adduction_l/speed	/jointset/hip_l/hip_rotation_l/speed	/jointset/back/lumbar_extension/speed	/jointset/patellofemoral_l/patellar_flexion_l/speed	/jointset/knee_l/knee_flexion_l/speed	/jointset/knee_l/knee_adduction_l/speed	/jointset/knee_l/knee_rotation_l/speed	/jointset/ankle_l/ankle_angle_l/speed	/jointset/subtalar_l/subtalar_angle_l/speed	/forceset/tau_hip_flexion_l	/forceset/tau_hip_adduction_l	/forceset/tau_hip_rotation_l	/forceset/tau_knee_flexion_l	/forceset/tau_ankle_angle_l	/forceset/tau_subtalar_angle_l	/forceset/tau_lumbar_extension	lambda_cid13_p0	lambda_cid13_p1	lambda_cid13_p2	lambda_cid13_p3	lambda_cid13_p4	lambda_cid13_p5	lambda_cid14_p0	/jointset/ground_pelvis/pelvis_tilt/accel	/jointset/ground_pelvis/pelvis_tx/accel	/jointset/ground_pelvis/pelvis_ty/accel	/jointset/hip_l/hip_flexion_l/accel	/jointset/hip_l/hip_adduction_l/accel	/jointset/hip_l/hip_rotation_l/accel	/jointset/back/lumbar_extension/accel	/jointset/patellofemoral_l/patellar_flexion_l/accel	/jointset/knee_l/knee_flexion_l/accel	/jointset/knee_l/knee_adduction_l/accel	/jointset/knee_l/knee_rotation_l/accel	/jointset/ankle_l/ankle_angle_l/accel	/jointset/subtalar_l/subtalar_angle_l/accel	gamma_cid13_p0	gamma_cid13_p1	gamma_cid13_p2	gamma_cid13_p3	gamma_cid13_p4	gamma_cid13_p5	gamma_cid14_p0
1.5	0.08387766637331492	0.02955953802860152	0.878517174482793	0.4832011349853561	-0.3223063034316322	-0.1571619199886813	-0.7748989294559838	0.7065690524210695	0.7065690524210784	-0.1125231942997409	-0.174517404946666	0.1938332371110695	0.04038555795739002	0.122324278612449	0.1590581088634684	0.3133581233678357	-1.483612118319998	0.1035833309585992	-0.5887079730210069	0.8484709517970449	-1.811252338377636	-1.81125233837768	-0.121031819768007	-3.385846074944672e-05	-0.5610451084196575	-0.08783718747243251	-0.1405369970791625	0.02894703492037549	-0.004791544960526582	-0.2232768437822656	0.01817627166906834	0.03694503465712266	0.2437838439619539	-36.44204152373064	-12.82511548208303	5.200560002926279	-1.611240958892782	-673.9700113925428	-76.95891954884478	-17.76975809995412	-0.2280861389743542	0.3986000732393176	-0.5156465214986141	-0.3216652809192895	0.3744262853984835	-0.2979352026304823	1.593625184695481	-0.844790807506499	-0.8447908075064964	-0.2801763575868186	0.03234013482852572	-0.2808556346756587	0.3683527177656117	7.3295041918117e-08	1.34817540823141e-06	-2.008958546866716e-07	1.606305830359674e-07	1.436941755411088e-07	6.60736352933273e-07	1.310982168615251e-07
1.51	0.08508947992351121	0.03116990532822096	0.8816243726972199	0.4683504339990495	-0.3212521945306497	-0.1630647231916696	-0.7663357500512729	0.6884165627256196	0.6884165627256358	-0.1137475805068041	-0.1745178001433765	0.1882094339991895	0.03952523885901563	0.1200305322590646	0.1629984150277757	0.3080221177650803	-1.486345603571789	0.1072361816926269	-0.591789453992159	0.8640475443101345	-1.818998563292521	-1.818998563292554	-0.1238408984871968	-4.324156532097779e-05	-0.5636238156517658	-0.08420484201488659	-0.1349982861013322	0.02762359253446993	-0.004752763686494006	-0.2200923728728874	0.02064433555541838	0.03628860882240608	0.2380641605927529	-35.50532193674479	-12.72684771462126	5.210942207541406	-1.844325720825577	-670.7929115632643	-76.95008991637222	-18.37971378540831	-0.2312108313623564	0.3892431255840907	-0.5514670554007315	-0.2218285964917048	0.3602361254452915	-0.3036485394061161	1.522068559717839	-0.7025088283938669	-0.702508828392334	-0.2803786865705098	-0.01730042187669426	-0.232581231227895	0.3637342984178635	5.81923891289636e-08	1.399889721085816e-06	-1.562559443864488e-07	1.788387942041805e-07	1.174539337219835e-07	6.53991779877635e-07	1.307304094391346e-07
1.52	0.08627811762061104	0.03281917513699539	0.8846764329604719	0.4534778704703899	-0.3201616527907284	-0.1689964200033668	-0.7576203262664102	0.6701940166820374	0.6701940166820585	-0.1149998785125399	-0.1745182337489119	0.1825626032222404	0.03870185498294989	0.1176891079919775	0.1668386106944695	0.3023305331328353	-1.487984626790886	0.1108698987482606	-0.5944866947652555	0.8789198278272876	-1.82526360800398	-1.825263608004003	-0.1266141795058004	-4.154022096040623e-05	-0.5656506414338572	-0.0804501430105895	-0.1294595751234999	0.02630015014860956	-0.00471398241239404	-0.2169079019635056	0.02311239944178339	0.03563218298774862	0.2323444772235393	-34.57178457788845	-12.62882131781597	5.22227544198915	-2.092843140173477	-667.6829181684956	-76.96776584307838	-18.97307498565577	-0.237621721714364	0.3785779737161701	-0.5867623273965535	-0.1027728743801995	0.3705995497196924	-0.2210871630193111	1.452763385508315	-0.5485547668212178	-0.5485547668212194	-0.2730168174695124	0.03455702461500359	-0.1704793446728543	0.3928234271156839	5.154610874666994e-08	1.421878142701151e-06	-1.513909387596358e-07	1.86781788373831e-07	1.058531321301888e-07	6.532947619075649e-07	1.324543505741872e-07
1.53	0.08744304522397174	0.03450626860598625	0.8876698393288563	0.4385945551557273	-0.319034921518507	-0.1749530609321443	-0.7487598696065437	0.6519163131920117	0.6519163131920078	-0.1162798351999209	-0.1745185577524316	0.1768982254445302	0.03791655260102686	0.115286729487623	0.1705550263269053	0.2962960991412265	-1.488482291668781	0.1144694824420082	-0.5967773567517023	0.8930316075520991	-1.830020236731136	-1.830020236731181	-0.1293704909864977	-2.476721363680608e-05	-0.5671359248646818	-0.07659535123056921	-0.1237432248478463	0.02485182426006085	-0.004722675550689334	-0.2138561122621277	0.02559726268118015	0.03492649281671319	0.2264508328248201	-33.64244982578536	-12.50505637326749	5.225384486891364	-2.253464655740306	-664.6373264154111	-76.97951614305501	-19.54513233917406	-0.243004822397341	0.3644512864095032	-0.619957760914748	0.006149500025915203	0.3534777084671752	-0.2233063561372046	1.369400777252966	-0.400716637286321	-0.4007166372896404	-0.275727872608215	-0.01501984724666331	-0.1241643633064935	0.3838567604020919	5.388472404666465e-08	1.412282804874976e-06	-1.887867693483205e-07	1.838179894825088e-07	1.098067357799327e-07	6.590232712159105e-07	1.364007745515232e-07
